<?xml version="1.0" standalone="no"?>
<!DOCTYPE svg PUBLIC "-//W3C//DTD SVG 20010904//EN"
 "http://www.w3.org/TR/2001/REC-SVG-20010904/DTD/svg10.dtd">
<svg version="1.0" xmlns="http://www.w3.org/2000/svg"
 width="860.000000pt" height="464.000000pt" viewBox="0 0 860.000000 464.000000"
 preserveAspectRatio="xMidYMid meet">

<g transform="translate(0.000000,464.000000) scale(0.100000,-0.100000)"
fill="#000000" stroke="none">
<path d="M0 2320 l0 -2320 4300 0 4300 0 0 2320 0 2320 -4300 0 -4300 0 0
-2320z m6470 1956 c0 -3 -4 -8 -10 -11 -5 -3 -10 -1 -10 4 0 6 5 11 10 11 6 0
10 -2 10 -4z m-2150 -69 c0 -2 -10 -12 -22 -23 l-23 -19 19 23 c18 21 26 27
26 19z m3630 -7 c0 -5 -7 -10 -15 -10 -8 0 -15 5 -15 10 0 6 7 10 15 10 8 0
15 -4 15 -10z m-1030 -59 c-9 -33 -28 -71 -36 -71 -2 0 2 13 11 30 8 16 16 40
17 54 1 13 5 23 9 20 4 -2 4 -17 -1 -33z m980 36 c0 -2 -15 -16 -32 -33 l-33
-29 29 33 c28 30 36 37 36 29z m-1050 -62 c13 -14 21 -25 18 -25 -2 0 -15 11
-28 25 -13 14 -21 25 -18 25 2 0 15 -11 28 -25z m-1340 5 c0 -5 -4 -10 -10
-10 -5 0 -10 5 -10 10 0 6 5 10 10 10 6 0 10 -4 10 -10z m2315 -18 c-3 -3 -11
0 -18 7 -9 10 -8 11 6 5 10 -3 15 -9 12 -12z m-2560 -42 c10 -11 16 -20 13
-20 -3 0 -13 9 -23 20 -10 11 -16 20 -13 20 3 0 13 -9 23 -20z m-355 0 c0 -5
-4 -10 -10 -10 -5 0 -10 5 -10 10 0 6 5 10 10 10 6 0 10 -4 10 -10z m405 -40
c10 -11 16 -20 13 -20 -3 0 -13 9 -23 20 -10 11 -16 20 -13 20 3 0 13 -9 23
-20z m-115 0 c0 -5 -5 -10 -11 -10 -5 0 -7 5 -4 10 3 6 8 10 11 10 2 0 4 -4 4
-10z m2705 0 c-3 -5 -12 -10 -18 -10 -7 0 -6 4 3 10 19 12 23 12 15 0z m-2540
-40 c10 -11 16 -20 13 -20 -3 0 -13 9 -23 20 -10 11 -16 20 -13 20 3 0 13 -9
23 -20z m-1015 -5 c0 -8 -7 -15 -15 -15 -16 0 -20 12 -8 23 11 12 23 8 23 -8z
m166 -33 c-17 -16 -18 -16 -5 5 7 12 15 20 18 17 3 -2 -3 -12 -13 -22z m-106
9 c0 -5 -7 -11 -14 -14 -10 -4 -13 -1 -9 9 6 15 23 19 23 5z m1035 -8 c-13
-12 -13 -18 -3 -31 11 -12 8 -12 -14 2 -40 26 -41 41 -2 43 31 1 32 0 19 -14z
m495 -6 c0 -2 -13 -16 -30 -32 -23 -22 -30 -25 -30 -12 0 9 6 17 14 17 7 0 19
7 26 15 12 14 20 19 20 12z m1264 -16 c3 -5 0 -11 -8 -14 -15 -6 -26 1 -26 15
0 11 27 10 34 -1z m-1730 -47 c3 -8 2 -12 -4 -9 -6 3 -10 10 -10 16 0 14 7 11
14 -7z m-374 -14 c0 -5 -2 -10 -4 -10 -3 0 -8 5 -11 10 -3 6 -1 10 4 10 6 0
11 -4 11 -10z m-695 -20 c3 -5 1 -10 -4 -10 -6 0 -11 5 -11 10 0 6 2 10 4 10
3 0 8 -4 11 -10z m2385 -23 c23 -30 23 -31 1 -12 -17 15 -24 16 -30 6 -6 -9
-10 -7 -14 8 -5 19 0 32 12 30 3 0 17 -14 31 -32z m924 -11 c-5 -12 -10 -14
-20 -5 -10 8 -11 14 -1 24 15 17 30 4 21 -19z m-3389 4 c10 -11 16 -20 13 -20
-3 0 -13 9 -23 20 -10 11 -16 20 -13 20 3 0 13 -9 23 -20z m3205 -10 c0 -5 -2
-10 -4 -10 -3 0 -8 5 -11 10 -3 6 -1 10 4 10 6 0 11 -4 11 -10z m-1340 -14 c0
-3 -4 -8 -10 -11 -5 -3 -10 -1 -10 4 0 6 5 11 10 11 6 0 10 -2 10 -4z m750 -5
c0 -15 -21 -25 -29 -14 -3 6 -13 13 -21 16 -8 3 0 6 18 6 17 1 32 -3 32 -8z
m-2230 -5 c0 -2 -7 -7 -16 -10 -8 -3 -12 -2 -9 4 6 10 25 14 25 6z m-665 -16
c3 -5 1 -10 -4 -10 -6 0 -11 5 -11 10 0 6 2 10 4 10 3 0 8 -4 11 -10z m625
-11 c0 -6 -4 -7 -10 -4 -5 3 -10 11 -10 16 0 6 5 7 10 4 6 -3 10 -11 10 -16z
m78 -14 c-3 -3 -9 2 -12 12 -6 14 -5 15 5 6 7 -7 10 -15 7 -18z m286 0 c4 -10
-1 -15 -16 -15 -17 0 -18 2 -8 15 7 8 14 15 15 15 2 0 5 -7 9 -15z m-906 -34
c-13 -15 -25 -27 -27 -25 -4 4 39 54 47 54 2 0 -7 -13 -20 -29z m2742 26 c0
-2 -10 -12 -22 -23 l-23 -19 19 23 c18 21 26 27 26 19z m-2140 -11 c0 -2 -8
-10 -17 -17 -16 -13 -17 -12 -4 4 13 16 21 21 21 13z m825 -6 c3 -5 -3 -10
-15 -10 -12 0 -18 5 -15 10 3 6 10 10 15 10 5 0 12 -4 15 -10z m365 -25 c13
-14 21 -25 18 -25 -2 0 -15 11 -28 25 -13 14 -21 25 -18 25 2 0 15 -11 28 -25z
m-1493 -2 c3 -7 -4 -16 -15 -22 -17 -9 -18 -7 -14 15 4 24 22 28 29 7z m3283
3 c0 -2 -8 -10 -17 -17 -16 -13 -17 -12 -4 4 13 16 21 21 21 13z m-2100 -31
c13 -14 21 -25 18 -25 -2 0 -15 11 -28 25 -13 14 -21 25 -18 25 2 0 15 -11 28
-25z m1144 -17 c7 -5 5 -8 -6 -8 -13 0 -18 7 -17 28 1 21 2 22 6 7 3 -11 10
-23 17 -27z m-1899 22 c-3 -5 -12 -10 -18 -10 -7 0 -6 4 3 10 19 12 23 12 15
0z m1945 6 c0 -2 -8 -10 -17 -17 -16 -13 -17 -12 -4 4 13 16 21 21 21 13z
m-2153 -24 c-10 -10 -14 -22 -10 -25 12 -13 -13 -7 -33 8 -19 14 -19 14 2 9
12 -3 26 1 33 10 8 9 16 16 19 16 3 0 -2 -8 -11 -18z m703 8 c0 -5 -2 -10 -4
-10 -3 0 -8 5 -11 10 -3 6 -1 10 4 10 6 0 11 -4 11 -10z m-1100 -10 c0 -5 -5
-10 -11 -10 -5 0 -7 5 -4 10 3 6 8 10 11 10 2 0 4 -4 4 -10z m120 -4 c0 -2 -8
-10 -17 -17 -16 -13 -17 -12 -4 4 13 16 21 21 21 13z m838 -18 c-6 -18 -25
-21 -25 -3 0 8 7 15 15 15 7 0 12 -5 10 -12z m560 -2 c-7 -8 -15 -12 -17 -11
-5 6 10 25 20 25 5 0 4 -6 -3 -14z m-1543 -14 c-3 -3 -11 0 -18 7 -9 10 -8 11
6 5 10 -3 15 -9 12 -12z m3405 14 c0 -2 -8 -10 -17 -17 -16 -13 -17 -12 -4 4
13 16 21 21 21 13z m-3880 -29 c0 -2 -19 -21 -42 -42 l-43 -40 40 43 c36 39
45 47 45 39z m1850 -7 c0 -5 -4 -10 -10 -10 -5 0 -10 5 -10 10 0 6 5 10 10 10
6 0 10 -4 10 -10z m1490 0 c0 -5 -4 -10 -10 -10 -5 0 -10 5 -10 10 0 6 5 10
10 10 6 0 10 -4 10 -10z m-1370 -20 c0 -5 -2 -10 -4 -10 -3 0 -8 5 -11 10 -3
6 -1 10 4 10 6 0 11 -4 11 -10z m439 -4 c9 -11 7 -13 -11 -11 -30 3 -30 3 -23
15 9 14 20 13 34 -4z m-2549 -6 c0 -5 -5 -10 -11 -10 -5 0 -7 5 -4 10 3 6 8
10 11 10 2 0 4 -4 4 -10z m3954 -5 c6 -17 4 -18 -18 -9 -20 8 -21 24 -2 24 8
0 16 -7 20 -15z m-2793 -22 c13 -16 12 -17 -3 -4 -17 13 -22 21 -14 21 2 0 10
-8 17 -17z m363 -14 c-3 -5 -10 -7 -15 -3 -5 3 -7 10 -3 15 3 5 10 7 15 3 5
-3 7 -10 3 -15z m-1126 -11 c2 -12 -2 -15 -17 -11 -12 3 -21 12 -21 20 0 20
34 12 38 -9z m2527 12 c-3 -5 -14 -10 -23 -9 -14 0 -13 2 3 9 27 11 27 11 20
0z m-1955 -40 c-6 -11 -15 -20 -20 -20 -16 0 -11 18 8 29 24 14 24 14 12 -9z
m-960 -3 c0 -2 -10 -12 -22 -23 l-23 -19 19 23 c18 21 26 27 26 19z m387 -44
c-3 -10 -5 -2 -5 17 0 19 2 27 5 18 2 -10 2 -26 0 -35z m433 37 c0 -5 -4 -10
-10 -10 -5 0 -10 5 -10 10 0 6 5 10 10 10 6 0 10 -4 10 -10z m1938 -18 c5 -17
-25 -15 -31 2 -4 9 0 13 11 12 9 -2 18 -8 20 -14z m-2317 -9 c13 -16 12 -17
-3 -4 -17 13 -22 21 -14 21 2 0 10 -8 17 -17z m565 -15 l29 -33 -32 29 c-31
28 -38 36 -30 36 2 0 16 -15 33 -32z m-713 -32 c-10 -13 -20 -22 -22 -20 -4 4
29 44 36 44 2 0 -4 -11 -14 -24z m77 14 c0 -5 -4 -10 -10 -10 -5 0 -10 5 -10
10 0 6 5 10 10 10 6 0 10 -4 10 -10z m1065 -10 c3 -5 1 -10 -4 -10 -6 0 -11 5
-11 10 0 6 2 10 4 10 3 0 8 -4 11 -10z m-380 -10 c3 -5 1 -10 -4 -10 -6 0 -11
5 -11 10 0 6 2 10 4 10 3 0 8 -4 11 -10z m1165 -30 c0 -5 -4 -10 -10 -10 -5 0
-10 5 -10 10 0 6 5 10 10 10 6 0 10 -4 10 -10z m382 -5 c0 -5 -5 -11 -11 -13
-6 -2 -11 4 -11 13 0 9 5 15 11 13 6 -2 11 -8 11 -13z m-1372 -15 c0 -5 -5
-10 -11 -10 -5 0 -7 5 -4 10 3 6 8 10 11 10 2 0 4 -4 4 -10z m1520 -35 c13
-14 21 -25 18 -25 -2 0 -15 11 -28 25 -13 14 -21 25 -18 25 2 0 15 -11 28 -25z
m-970 11 c0 -2 -8 -10 -17 -17 -16 -13 -17 -12 -4 4 13 16 21 21 21 13z m730
-6 c0 -5 -2 -10 -4 -10 -3 0 -8 5 -11 10 -3 6 -1 10 4 10 6 0 11 -4 11 -10z
m50 -4 c0 -2 -8 -10 -17 -17 -16 -13 -17 -12 -4 4 13 16 21 21 21 13z m-850
-50 c0 -2 -8 -10 -17 -17 -16 -13 -17 -12 -4 4 13 16 21 21 21 13z m800 -10
c0 -2 -8 -10 -17 -17 -16 -13 -17 -12 -4 4 13 16 21 21 21 13z m-349 -33 c13
-16 12 -17 -3 -4 -17 13 -22 21 -14 21 2 0 10 -8 17 -17z m-1925 -21 c-3 -3 0
-12 7 -21 11 -14 10 -14 -5 -2 -10 7 -18 10 -18 5 0 -4 -6 -2 -12 4 -10 10
-10 15 2 22 14 9 36 3 26 -8z m879 -1 c-3 -6 -11 -8 -17 -5 -6 4 -5 9 3 15 16
10 23 4 14 -10z m690 9 c-3 -5 -10 -10 -16 -10 -5 0 -9 5 -9 10 0 6 7 10 16
10 8 0 12 -4 9 -10z m995 6 c0 -2 -8 -10 -17 -17 -16 -13 -17 -12 -4 4 13 16
21 21 21 13z m-2332 -38 c2 -9 -3 -18 -10 -21 -9 -3 -15 4 -16 20 -2 27 21 28
26 1z m2662 8 c0 -2 -8 -10 -17 -17 -16 -13 -17 -12 -4 4 13 16 21 21 21 13z
m-2360 -21 c0 -8 -4 -15 -10 -15 -5 0 -7 7 -4 15 4 8 8 15 10 15 2 0 4 -7 4
-15z m-265 -5 c3 -5 1 -10 -4 -10 -6 0 -11 5 -11 10 0 6 2 10 4 10 3 0 8 -4
11 -10z m690 -10 c3 -5 1 -10 -4 -10 -6 0 -11 5 -11 10 0 6 2 10 4 10 3 0 8
-4 11 -10z m-605 -40 c0 -5 -2 -10 -4 -10 -3 0 -8 5 -11 10 -3 6 -1 10 4 10 6
0 11 -4 11 -10z m1044 -2 c-3 -7 -20 -24 -37 -38 l-32 -25 30 37 c29 37 50 50
39 26z m1226 -18 c0 -5 -5 -10 -11 -10 -5 0 -7 5 -4 10 3 6 8 10 11 10 2 0 4
-4 4 -10z m-2930 -20 c0 -5 -4 -10 -10 -10 -5 0 -10 5 -10 10 0 6 5 10 10 10
6 0 10 -4 10 -10z m2090 -21 c0 -5 -4 -9 -10 -9 -5 0 -10 7 -10 16 0 8 5 12
10 9 6 -3 10 -10 10 -16z m370 -1 c0 -18 -2 -20 -9 -8 -6 8 -7 18 -5 22 9 14
14 9 14 -14z m-1995 2 c3 -5 1 -10 -4 -10 -6 0 -11 5 -11 10 0 6 2 10 4 10 3
0 8 -4 11 -10z m1293 -45 c-3 -3 -9 2 -12 12 -6 14 -5 15 5 6 7 -7 10 -15 7
-18z m-883 5 c3 -5 -1 -10 -9 -10 -9 0 -16 5 -16 10 0 6 4 10 9 10 6 0 13 -4
16 -10z m285 -6 c0 -8 -5 -12 -10 -9 -6 4 -8 11 -5 16 9 14 15 11 15 -7z m460
13 c0 -2 -10 -12 -22 -23 l-23 -19 19 23 c18 21 26 27 26 19z m-1170 -14 c0
-5 -4 -14 -9 -21 -7 -11 -9 -11 -14 1 -3 8 -3 18 0 21 9 8 23 7 23 -1z m607 1
c-3 -3 -12 -4 -19 -1 -8 3 -5 6 6 6 11 1 17 -2 13 -5z m399 -26 l29 -33 -32
29 c-31 28 -38 36 -30 36 2 0 16 -15 33 -32z m-599 -10 c-3 -8 -6 -5 -6 6 -1
11 2 17 5 13 3 -3 4 -12 1 -19z m-202 3 c3 -5 1 -12 -5 -16 -5 -3 -10 1 -10 9
0 18 6 21 15 7z m-50 -11 c3 -5 1 -10 -4 -10 -6 0 -11 5 -11 10 0 6 2 10 4 10
3 0 8 -4 11 -10z m-685 -10 c0 -5 -7 -10 -15 -10 -8 0 -15 5 -15 10 0 6 7 10
15 10 8 0 15 -4 15 -10z m2535 -10 c10 -11 16 -20 13 -20 -3 0 -13 9 -23 20
-10 11 -16 20 -13 20 3 0 13 -9 23 -20z m-2175 -10 c0 -5 -5 -10 -11 -10 -5 0
-7 5 -4 10 3 6 8 10 11 10 2 0 4 -4 4 -10z m670 -20 c0 -5 -5 -10 -11 -10 -5
0 -7 5 -4 10 3 6 8 10 11 10 2 0 4 -4 4 -10z m580 -5 c0 -8 -7 -15 -15 -15 -8
0 -15 7 -15 15 0 8 7 15 15 15 8 0 15 -7 15 -15z m120 5 c0 -5 -5 -10 -11 -10
-5 0 -7 5 -4 10 3 6 8 10 11 10 2 0 4 -4 4 -10z m34 -14 c-5 -14 -9 -15 -15
-5 -5 8 -3 17 4 21 15 9 19 4 11 -16z m-1674 6 c0 -14 -11 -21 -26 -15 -8 3
-11 9 -8 14 7 11 34 12 34 1z m147 -24 c-6 -4 -16 -3 -22 3 -6 6 -5 13 5 19 9
6 17 5 22 -3 4 -6 2 -15 -5 -19z m-117 18 c0 -3 -4 -8 -10 -11 -5 -3 -10 -1
-10 4 0 6 5 11 10 11 6 0 10 -2 10 -4z m1170 -6 c0 -5 -4 -10 -10 -10 -5 0
-10 5 -10 10 0 6 5 10 10 10 6 0 10 -4 10 -10z m590 0 c0 -5 -4 -10 -10 -10
-5 0 -10 5 -10 10 0 6 5 10 10 10 6 0 10 -4 10 -10z m315 1 c3 -5 1 -12 -5
-16 -5 -3 -10 1 -10 9 0 18 6 21 15 7z m-658 -15 c-3 -7 0 -19 6 -25 6 -6 7
-11 3 -11 -10 0 -35 31 -36 43 0 4 7 7 16 7 10 0 14 -6 11 -14z m-1667 -10 c0
-8 -4 -18 -10 -21 -5 -3 -10 3 -10 14 0 12 5 21 10 21 6 0 10 -6 10 -14z m100
-16 c6 -11 9 -20 8 -21 -2 0 -14 -1 -28 -3 -24 -1 -25 1 -15 21 12 28 21 29
35 3z m1359 -27 c11 -22 10 -22 -13 -12 -19 9 -22 14 -13 24 7 7 13 12 13 11
1 0 7 -11 13 -23z m-1419 -7 c0 -2 -8 -10 -17 -17 -16 -13 -17 -12 -4 4 13 16
21 21 21 13z m1610 1 c0 -1 -24 -25 -52 -52 l-53 -50 50 53 c46 48 55 57 55
49z m-230 -10 c0 -2 -12 -14 -27 -28 l-28 -24 24 28 c23 25 31 32 31 24z
m-380 -29 c0 -16 -3 -19 -11 -11 -6 6 -8 16 -5 22 11 17 16 13 16 -11z m-1050
-8 c0 -5 -4 -10 -10 -10 -5 0 -10 5 -10 10 0 6 5 10 10 10 6 0 10 -4 10 -10z
m244 -132 c-10 -17 -35 -8 -30 10 8 24 -56 87 -79 79 -12 -5 -14 -3 -6 12 6
10 9 20 7 22 -2 2 23 -23 55 -55 32 -33 56 -63 53 -68z m-4 122 c8 -5 12 -11
10 -14 -3 -2 -14 2 -24 10 -22 15 -10 19 14 4z m1617 -32 c-3 -8 -6 -5 -6 6
-1 11 2 17 5 13 3 -3 4 -12 1 -19z m-1367 -26 c0 -14 -11 -21 -26 -15 -8 3
-11 9 -8 14 7 11 34 12 34 1z m830 5 c0 -2 -14 -16 -32 -33 l-32 -29 25 32
c20 27 39 41 39 30z m234 -13 c3 -8 2 -12 -4 -9 -6 3 -10 10 -10 16 0 14 7 11
14 -7z m286 12 c0 -2 -8 -10 -17 -17 -16 -13 -17 -12 -4 4 13 16 21 21 21 13z
m245 -16 c10 -11 16 -20 13 -20 -3 0 -13 9 -23 20 -10 11 -16 20 -13 20 3 0
13 -9 23 -20z m-1746 -3 c12 -15 5 -27 -16 -27 -7 0 -13 9 -13 20 0 23 13 26
29 7z m755 -2 c-4 -8 -10 -12 -15 -9 -14 8 -10 24 6 24 9 0 12 -6 9 -15z m926
5 c0 -5 -2 -10 -4 -10 -3 0 -8 5 -11 10 -3 6 -1 10 4 10 6 0 11 -4 11 -10z
m-1160 -10 c0 -5 -4 -10 -10 -10 -5 0 -10 5 -10 10 0 6 5 10 10 10 6 0 10 -4
10 -10z m-845 -58 c-8 -8 -25 10 -19 20 4 6 9 5 15 -3 4 -7 6 -15 4 -17z m805
15 c0 -2 -12 -14 -27 -28 l-28 -24 24 28 c23 25 31 32 31 24z m960 0 c0 -2
-10 -12 -22 -23 l-23 -19 19 23 c18 21 26 27 26 19z m-760 -10 c0 -2 -19 -21
-42 -42 l-43 -40 40 43 c36 39 45 47 45 39z m930 -1 c0 -2 -8 -10 -17 -17 -16
-13 -17 -12 -4 4 13 16 21 21 21 13z m205 -16 c10 -11 16 -20 13 -20 -3 0 -13
9 -23 20 -10 11 -16 20 -13 20 3 0 13 -9 23 -20z m-2095 -6 c0 -8 -5 -12 -10
-9 -6 4 -8 11 -5 16 9 14 15 11 15 -7z m1392 -6 c-20 -22 -22 -26 -22 -49 0
-6 -6 -9 -14 -6 -17 7 -136 -112 -136 -136 0 -19 -16 -23 -22 -6 -3 10 199
219 211 219 3 0 -5 -10 -17 -22z m1008 12 c0 -5 -2 -10 -4 -10 -3 0 -8 5 -11
10 -3 6 -1 10 4 10 6 0 11 -4 11 -10z m-1880 -20 c0 -5 -2 -10 -4 -10 -3 0 -8
5 -11 10 -3 6 -1 10 4 10 6 0 11 -4 11 -10z m620 7 c0 -2 -12 -14 -27 -28
l-28 -24 24 28 c23 25 31 32 31 24z m710 -23 c0 -8 -5 -12 -10 -9 -6 4 -8 11
-5 16 9 14 15 11 15 -7z m1240 6 c0 -5 -2 -10 -4 -10 -3 0 -8 5 -11 10 -3 6
-1 10 4 10 6 0 11 -4 11 -10z m-3043 -15 c0 -8 -4 -12 -9 -9 -5 3 -6 10 -3 15
9 13 12 11 12 -6z m2363 12 c0 -2 -10 -12 -22 -23 l-23 -19 19 23 c18 21 26
27 26 19z m-1900 -29 c0 -6 -3 -8 -7 -5 -3 4 -12 -1 -20 -11 -8 -9 -12 -11 -8
-4 4 7 -1 12 -12 12 -14 0 -12 3 7 14 27 14 40 12 40 -6z m170 -1 c0 -2 -10
-12 -22 -23 l-23 -19 19 23 c18 21 26 27 26 19z m1211 -14 c13 -16 12 -17 -3
-4 -10 7 -18 15 -18 17 0 8 8 3 21 -13z m-1806 -3 c3 -5 -1 -10 -9 -10 -9 0
-16 5 -16 10 0 6 4 10 9 10 6 0 13 -4 16 -10z m789 2 c3 -5 -1 -9 -9 -9 -8 0
-12 4 -9 9 3 4 7 8 9 8 2 0 6 -4 9 -8z m-749 -20 c-3 -3 -11 0 -18 7 -9 10 -8
11 6 5 10 -3 15 -9 12 -12z m940 8 c-3 -5 -12 -10 -18 -10 -7 0 -6 4 3 10 19
12 23 12 15 0z m568 -12 c-13 -14 -18 -16 -25 -6 -13 22 -9 28 17 26 23 -2 23
-3 8 -20z m-895 -13 c-3 -3 -9 2 -12 12 -6 14 -5 15 5 6 7 -7 10 -15 7 -18z
m-530 3 c18 -18 15 -28 -8 -28 -13 0 -20 7 -20 20 0 23 10 26 28 8z m612 -23
c-34 -35 -34 -35 -9 -36 20 -1 21 -2 4 -6 -33 -8 -41 -20 -70 -99 -15 -41 -29
-73 -31 -71 -2 2 7 34 21 71 14 37 26 78 27 92 1 13 10 26 19 29 9 3 26 17 39
30 13 14 26 25 29 25 3 0 -10 -16 -29 -35z m1494 24 c9 8 13 7 13 -3 0 -24
-33 -26 -34 -2 -1 12 1 15 4 8 3 -9 9 -10 17 -3z m-2193 -21 c11 -21 11 -22
-4 -9 -10 7 -17 17 -17 22 0 15 9 10 21 -13z m534 12 c13 -6 15 -9 5 -9 -8 0
-22 4 -30 9 -18 12 -2 12 25 0z m455 -16 c0 -2 -9 0 -20 6 -11 6 -20 13 -20
16 0 2 9 0 20 -6 11 -6 20 -13 20 -16z m-1133 10 c-3 -3 -12 -4 -19 -1 -8 3
-5 6 6 6 11 1 17 -2 13 -5z m473 2 c0 -2 -8 -10 -17 -17 -16 -13 -17 -12 -4 4
13 16 21 21 21 13z m1511 -13 c13 -16 12 -17 -3 -4 -10 7 -18 15 -18 17 0 8 8
3 21 -13z m-974 -11 c-10 -10 -17 -23 -17 -29 0 -6 -11 -13 -24 -15 -21 -4
-23 -3 -13 14 7 10 17 18 23 18 6 0 17 7 24 15 7 8 15 15 18 15 3 0 -2 -8 -11
-18z m657 2 c3 -8 2 -12 -4 -9 -6 3 -10 10 -10 16 0 14 7 11 14 -7z m1446 -8
c0 -2 -8 -10 -17 -17 -16 -13 -17 -12 -4 4 13 16 21 21 21 13z m-2610 -45 c0
-17 -4 -32 -9 -35 -4 -3 -6 6 -3 19 3 19 0 25 -14 25 -16 0 -17 2 -4 10 24 16
30 12 30 -19z m1541 12 c13 -17 13 -17 -6 -3 -11 8 -22 16 -24 17 -2 2 0 3 6
3 6 0 17 -8 24 -17z m-1625 -25 c-3 -13 -6 -27 -6 -31 0 -5 -7 -1 -16 8 -19
18 -12 45 12 45 12 0 15 -6 10 -22z m641 -16 c-28 -29 -34 -41 -26 -49 17 -17
-30 -27 -72 -15 -26 8 -29 10 -11 11 32 1 72 24 106 60 17 17 32 31 35 31 3 0
-12 -17 -32 -38z m113 22 c0 -8 -4 -12 -10 -9 -5 3 -10 10 -10 16 0 5 5 9 10
9 6 0 10 -7 10 -16z m1271 -1 c13 -16 12 -17 -3 -4 -10 7 -18 15 -18 17 0 8 8
3 21 -13z m-501 -7 c0 -8 -6 -16 -14 -19 -12 -5 -14 6 -7 31 3 9 21 -1 21 -12z
m1120 5 c0 -5 -14 -17 -32 -25 l-32 -16 24 25 c24 26 40 32 40 16z m-2493 -38
c-3 -10 -5 -4 -5 12 0 17 2 24 5 18 2 -7 2 -21 0 -30z m-536 20 c0 -5 2 -18 5
-31 4 -21 2 -22 -11 -8 -17 17 -20 46 -5 46 6 0 10 -3 11 -7z m454 -28 l20
-16 -20 10 c-11 5 -29 17 -40 26 l-20 16 20 -10 c11 -5 29 -17 40 -26z m891
-4 c-4 -6 -19 -11 -33 -11 l-26 0 23 20 c23 20 49 13 36 -9z m1514 25 c0 -2
-8 -10 -17 -17 -16 -13 -17 -12 -4 4 13 16 21 21 21 13z m-2259 -29 c-10 -9
-11 -8 -5 6 3 10 9 15 12 12 3 -3 0 -11 -7 -18z m1862 8 c-3 -9 -8 -14 -10
-11 -3 3 -2 9 2 15 9 16 15 13 8 -4z m-1192 -12 c13 -16 12 -17 -3 -4 -17 13
-22 21 -14 21 2 0 10 -8 17 -17z m199 -3 c0 -5 -7 -7 -15 -4 -8 4 -12 10 -9
15 6 11 24 2 24 -11z m252 6 c3 2 8 -2 12 -11 3 -9 -1 -18 -10 -22 -18 -7 -27
1 -29 27 -1 14 2 17 10 10 7 -5 14 -7 17 -4z m-1662 -28 c0 -15 -15 -8 -28 12
-12 19 -11 20 8 8 11 -7 20 -16 20 -20z m2050 17 c0 -12 -19 -12 -23 0 -4 9
-1 12 9 8 7 -3 14 -7 14 -8z m-1880 -25 c0 -12 -18 -12 -45 0 -18 8 -18 9 -2
9 11 1 15 6 11 12 -4 8 0 8 15 0 11 -7 21 -16 21 -21z m603 23 c9 -9 -13 -34
-24 -27 -14 8 -11 34 4 34 8 0 17 -3 20 -7z m1657 -8 c11 -13 10 -14 -4 -9 -9
3 -16 10 -16 15 0 13 6 11 20 -6z m-1929 -22 c11 3 16 1 13 -4 -3 -6 0 -17 8
-26 9 -12 9 -15 1 -9 -9 5 -13 1 -14 -11 0 -11 -3 -13 -6 -5 -4 10 -8 10 -21
0 -14 -12 -14 -10 -3 11 11 20 11 25 0 32 -8 4 -23 15 -34 24 -18 16 -18 16 9
0 15 -9 37 -15 47 -12z m1690 10 c13 -16 12 -17 -3 -4 -10 7 -18 15 -18 17 0
8 8 3 21 -13z m149 7 c0 -5 -5 -10 -11 -10 -5 0 -7 5 -4 10 3 6 8 10 11 10 2
0 4 -4 4 -10z m582 -12 c-7 -7 -12 -8 -12 -2 0 14 12 26 19 19 2 -3 -1 -11 -7
-17z m-1887 2 c19 -8 19 -9 -2 -9 -12 -1 -25 4 -28 9 -7 12 2 12 30 0z m1085
6 c0 -2 -8 -10 -17 -17 -16 -13 -17 -12 -4 4 13 16 21 21 21 13z m-1040 -32
c0 -8 -9 -14 -22 -13 -13 0 -17 3 -10 6 6 2 12 11 12 19 0 9 5 12 10 9 6 -3
10 -13 10 -21z m67 11 c0 -7 -11 -12 -24 -12 -17 0 -21 3 -13 12 5 6 16 12 23
12 8 0 14 -6 14 -12z m748 -24 c-9 -16 -25 -3 -18 15 4 10 9 12 15 6 6 -6 7
-15 3 -21z m115 25 c0 -2 -8 -10 -17 -17 -16 -13 -17 -12 -4 4 13 16 21 21 21
13z m240 -28 c0 -15 -15 -8 -28 12 -12 19 -11 20 8 8 11 -7 20 -16 20 -20z
m-1410 8 c0 -2 -7 -7 -16 -10 -8 -3 -12 -2 -9 4 6 10 25 14 25 6z m137 -33
c-11 -11 -17 -13 -17 -5 0 9 -16 11 -57 7 l-58 -4 55 10 c30 5 59 14 64 19 7
7 14 6 20 0 7 -7 5 -16 -7 -27z m780 -15 c20 -1 34 -11 24 -17 -15 -10 17 -54
34 -47 8 3 11 -2 8 -14 -3 -10 -15 -20 -28 -22 -20 -4 -22 -3 -12 13 10 15 8
23 -11 41 -19 20 -24 21 -32 8 -7 -11 -10 -8 -10 14 0 17 -10 41 -22 55 -20
23 -19 22 9 -2 17 -16 35 -29 40 -29z m-1656 27 c18 12 -7 -29 -28 -46 -17
-13 -17 -13 -1 7 17 19 17 21 0 39 -16 17 -16 18 0 6 9 -7 22 -10 29 -6z m564
-15 c-27 -28 -28 -33 -16 -53 13 -20 13 -21 -2 -8 -13 10 -17 10 -17 1 0 -9
-3 -10 -13 -1 -10 8 -28 5 -68 -10 -30 -11 -49 -16 -44 -11 6 5 27 15 48 22
21 7 41 18 44 26 3 8 13 14 22 14 10 0 28 11 41 25 13 14 26 25 29 25 2 0 -8
-14 -24 -30z m645 14 c0 -14 -3 -14 -15 -4 -8 7 -15 14 -15 16 0 2 7 4 15 4 8
0 15 -7 15 -16z m774 1 c3 -9 0 -15 -9 -15 -16 0 -27 14 -18 24 10 10 21 7 27
-9z m116 7 c0 -15 -11 -21 -27 -15 -12 5 -12 7 -1 14 17 11 28 11 28 1z
m-1955 -12 c3 -6 -1 -7 -9 -4 -18 7 -21 14 -7 14 6 0 13 -4 16 -10z m1199 -4
c-10 -8 -21 -11 -24 -6 -3 4 -14 10 -25 13 -11 2 0 5 24 6 41 1 43 0 25 -13z
m126 10 c0 -3 -4 -8 -10 -11 -5 -3 -10 -1 -10 4 0 6 5 11 10 11 6 0 10 -2 10
-4z m560 -11 c-1 -4 11 -20 26 -36 23 -24 30 -27 43 -16 14 10 14 10 3 -5 -8
-10 -10 -23 -6 -30 4 -7 -13 9 -39 36 -25 27 -44 53 -41 58 6 10 17 4 14 -7z
m247 -17 c-3 -8 -6 -5 -6 6 -1 11 2 17 5 13 3 -3 4 -12 1 -19z m-47 -9 c0 -5
-9 -9 -20 -9 -22 0 -27 16 -7 23 15 5 27 -1 27 -14z m607 -1 c-3 -8 -6 -5 -6
6 -1 11 2 17 5 13 3 -3 4 -12 1 -19z m-2107 -13 c13 -14 21 -25 18 -25 -2 0
-15 11 -28 25 -13 14 -21 25 -18 25 2 0 15 -11 28 -25z m655 5 c10 -11 16 -20
13 -20 -3 0 -13 9 -23 20 -10 11 -16 20 -13 20 3 0 13 -9 23 -20z m615 16 c0
-2 -8 -10 -17 -17 -16 -13 -17 -12 -4 4 13 16 21 21 21 13z m-1959 -23 c13
-16 12 -17 -3 -4 -17 13 -22 21 -14 21 2 0 10 -8 17 -17z m176 2 c0 -8 -6 -15
-14 -15 -14 0 -17 12 -6 23 11 11 20 8 20 -8z m443 -9 c0 -8 14 -24 31 -36 16
-12 28 -24 25 -27 -7 -8 -85 60 -80 69 8 13 24 9 24 -6z m1120 8 c0 0 -10 -9
-22 -20 -16 -13 -19 -14 -10 -2 10 13 10 17 0 21 -7 3 -3 4 10 4 12 -1 22 -2
22 -3z m-689 -21 c13 -16 12 -17 -3 -4 -17 13 -22 21 -14 21 2 0 10 -8 17 -17z
m132 -8 c1 -5 -6 -11 -15 -13 -11 -2 -18 3 -18 13 0 17 30 18 33 0z m217 -6
c11 -19 10 -20 -10 -9 -11 6 -18 15 -15 21 9 13 13 11 25 -12z m483 -9 c-6
-23 -33 -15 -33 10 0 13 6 17 19 13 12 -3 17 -11 14 -23z m-1986 2 c-10 -10
-17 -24 -17 -30 0 -13 -13 -16 -24 -5 -3 4 6 17 21 30 34 27 42 29 20 5z m156
12 c9 -9 -4 -35 -14 -28 -5 3 -9 12 -9 20 0 14 12 19 23 8z m707 -4 c18 -12 2
-12 -25 0 -13 6 -15 9 -5 9 8 0 22 -4 30 -9z m-545 -20 c10 -11 14 -20 9 -20
-5 0 -15 9 -22 20 -7 11 -11 20 -9 20 2 0 12 -9 22 -20z m365 -1 c0 -24 -12
-24 -33 -1 -14 16 -14 17 9 18 17 1 24 -3 24 -17z m220 12 c0 -5 -7 -12 -16
-15 -14 -5 -15 -4 -4 9 14 17 20 19 20 6z m148 -12 c9 -3 5 -10 -12 -18 -32
-18 -42 -10 -26 19 7 13 15 18 19 13 3 -6 12 -12 19 -14z m1016 -10 c-3 -5
-10 -7 -15 -3 -5 3 -7 10 -3 15 3 5 10 7 15 3 5 -3 7 -10 3 -15z m166 5 c0 -8
-5 -12 -10 -9 -6 4 -8 11 -5 16 9 14 15 11 15 -7z m178 5 c-2 -6 -8 -10 -13
-10 -5 0 -11 4 -13 10 -2 6 4 11 13 11 9 0 15 -5 13 -11z m296 -10 c-3 -5 -10
-7 -15 -3 -5 3 -7 10 -3 15 3 5 10 7 15 3 5 -3 7 -10 3 -15z m-2674 1 c0 -5
-2 -10 -4 -10 -3 0 -8 5 -11 10 -3 6 -1 10 4 10 6 0 11 -4 11 -10z m400 0 c-8
-5 -19 -10 -25 -10 -5 0 -3 5 5 10 8 5 20 10 25 10 6 0 3 -5 -5 -10z m180 -25
c0 -5 -5 -3 -10 5 -5 8 -10 20 -10 25 0 6 5 3 10 -5 5 -8 10 -19 10 -25z m600
20 c10 -12 10 -15 -2 -15 -8 0 -15 7 -15 15 0 8 1 15 2 15 2 0 8 -7 15 -15z
m161 3 c8 -7 21 -22 29 -33 l15 -20 -25 20 c-41 33 -52 45 -43 45 5 0 16 -6
24 -12z m300 -11 c-10 -9 -11 -8 -5 6 3 10 9 15 12 12 3 -3 0 -11 -7 -18z
m-1191 9 c0 -3 -4 -8 -10 -11 -5 -3 -10 -1 -10 4 0 6 5 11 10 11 6 0 10 -2 10
-4z m1379 2 c-2 -2 -25 -22 -50 -45 -41 -40 -45 -41 -46 -21 -1 14 1 18 6 10
5 -8 17 -2 41 23 19 19 38 35 44 35 5 0 7 -1 5 -2z m-1510 -32 c9 -10 8 -15
-2 -19 -19 -7 -41 8 -33 22 10 15 21 14 35 -3z m475 2 c-3 -4 -12 -8 -20 -8
-8 0 -14 4 -14 8 0 4 9 8 19 8 11 0 17 -4 15 -8z m1288 -10 c-7 -7 -12 -8 -12
-2 0 14 12 26 19 19 2 -3 -1 -11 -7 -17z m-1701 -5 c13 -16 12 -17 -3 -4 -10
7 -18 15 -18 17 0 8 8 3 21 -13z m769 13 c0 -2 -12 -11 -27 -20 l-28 -17 24
20 c23 21 31 25 31 17z m112 -28 c-10 -10 -15 -10 -22 2 -6 9 -5 17 3 22 18
11 33 -10 19 -24z m365 2 c0 -31 -24 -50 -33 -26 -4 12 6 29 32 55 0 1 1 -12
1 -29z m-1180 -62 c-20 -12 -24 1 -13 37 l11 36 7 -33 c4 -20 2 -35 -5 -40z
m330 50 c-3 -8 -6 -5 -6 6 -1 11 2 17 5 13 3 -3 4 -12 1 -19z m-190 -20 c-3
-7 -5 -2 -5 12 0 14 2 19 5 13 2 -7 2 -19 0 -25z m186 -34 c7 0 26 11 42 25
l30 26 -27 -31 c-16 -16 -28 -35 -28 -41 0 -6 -11 -13 -25 -15 -20 -4 -23 -3
-14 8 8 10 4 24 -21 56 l-32 43 31 -35 c18 -19 37 -35 44 -36z m592 46 c-3 -5
-12 -10 -18 -10 -7 0 -6 4 3 10 19 12 23 12 15 0z m1385 -16 c0 -16 -16 -19
-25 -4 -8 13 4 32 16 25 5 -4 9 -13 9 -21z m-1686 -9 c-26 -26 -44 -32 -44
-16 0 9 45 37 62 40 4 1 -4 -10 -18 -24z m777 10 c-1 -15 -24 -12 -29 3 -3 9
2 13 12 10 10 -1 17 -7 17 -13z m199 11 c0 -2 -8 -10 -17 -17 -16 -13 -17 -12
-4 4 13 16 21 21 21 13z m796 -34 c-17 -16 -18 -16 -5 5 7 12 15 20 18 17 3
-2 -3 -12 -13 -22z m-1386 6 c0 -6 8 -20 18 -32 17 -20 17 -20 -10 0 -27 19
-37 44 -18 44 6 0 10 -5 10 -12z m-590 -2 c0 -3 -4 -8 -10 -11 -5 -3 -10 -1
-10 4 0 6 5 11 10 11 6 0 10 -2 10 -4z m-697 -26 c-3 -11 -10 -17 -15 -14 -5
3 -21 -5 -35 -17 -25 -22 -24 -21 3 13 32 41 55 50 47 18z m1387 16 c0 -2 -8
-10 -17 -17 -16 -13 -17 -12 -4 4 13 16 21 21 21 13z m460 -11 c0 -8 -6 -15
-14 -15 -8 0 -16 7 -20 15 -4 10 1 15 14 15 11 0 20 -7 20 -15z m-1986 -10
c-4 -8 -10 -12 -15 -9 -14 8 -10 24 6 24 9 0 12 -6 9 -15z m189 0 c-3 -9 -8
-14 -10 -11 -3 3 -2 9 2 15 9 16 15 13 8 -4z m2377 5 c0 -5 -5 -10 -11 -10 -5
0 -7 5 -4 10 3 6 8 10 11 10 2 0 4 -4 4 -10z m-279 -23 c-10 -9 -11 -8 -5 6 3
10 9 15 12 12 3 -3 0 -11 -7 -18z m179 13 c0 -5 -5 -10 -11 -10 -5 0 -7 5 -4
10 3 6 8 10 11 10 2 0 4 -4 4 -10z m320 -4 c0 -2 -8 -10 -17 -17 -16 -13 -17
-12 -4 4 13 16 21 21 21 13z m-1875 -26 c10 -11 16 -20 13 -20 -3 0 -13 9 -23
20 -10 11 -16 20 -13 20 3 0 13 -9 23 -20z m1025 17 c0 -2 -10 -12 -22 -23
l-23 -19 19 23 c18 21 26 27 26 19z m665 -17 c10 -11 16 -20 13 -20 -3 0 -13
9 -23 20 -10 11 -16 20 -13 20 3 0 13 -9 23 -20z m-1495 -15 c13 -14 21 -25
18 -25 -2 0 -15 11 -28 25 -13 14 -21 25 -18 25 2 0 15 -11 28 -25z m1144 13
c21 17 21 17 2 -5 -14 -17 -23 -20 -37 -13 -10 6 -21 15 -25 22 -4 6 3 4 16
-5 22 -15 25 -15 44 1z m244 -9 c-2 -6 -8 -10 -13 -10 -5 0 -11 4 -13 10 -2 6
4 11 13 11 9 0 15 -5 13 -11z m-2307 -26 c13 -16 12 -17 -3 -4 -17 13 -22 21
-14 21 2 0 10 -8 17 -17z m199 -3 c0 -5 -4 -10 -10 -10 -5 0 -10 5 -10 10 0 6
5 10 10 10 6 0 10 -4 10 -10z m218 -13 c2 -11 -3 -17 -15 -17 -12 0 -19 7 -19
19 0 23 30 21 34 -2z m1042 19 c0 -2 -8 -10 -17 -17 -16 -13 -17 -12 -4 4 13
16 21 21 21 13z m240 -5 c0 -12 -15 -28 -31 -33 -11 -5 -16 -1 -15 10 1 20 11
29 31 29 8 0 15 -3 15 -6z m-909 -38 c13 -16 12 -17 -3 -4 -17 13 -22 21 -14
21 2 0 10 -8 17 -17z m204 -3 c3 -5 1 -10 -4 -10 -6 0 -11 5 -11 10 0 6 2 10
4 10 3 0 8 -4 11 -10z m135 6 c0 -2 -7 -9 -15 -16 -12 -10 -15 -10 -15 4 0 9
7 16 15 16 8 0 15 -2 15 -4z m263 -23 c-16 -24 -39 -22 -39 5 0 12 8 17 27 17
25 0 25 -1 12 -22z m-1393 -3 c-6 -11 -15 -18 -21 -15 -15 10 -11 23 9 28 9 3
18 5 20 6 1 0 -2 -8 -8 -19z m451 3 c13 -16 12 -17 -3 -4 -17 13 -22 21 -14
21 2 0 10 -8 17 -17z m-246 -22 c-3 -6 -11 -11 -16 -11 -5 0 -4 6 3 14 14 16
24 13 13 -3z m902 -67 c16 -7 22 -13 15 -13 -7 -1 -11 -5 -8 -10 4 -5 -2 -8
-11 -7 -9 2 -19 9 -21 17 -2 8 -23 34 -46 59 l-41 45 42 -39 c24 -22 55 -45
70 -52z m-997 66 c0 -5 -4 -10 -10 -10 -5 0 -10 5 -10 10 0 6 5 10 10 10 6 0
10 -4 10 -10z m715 0 c3 -5 1 -10 -4 -10 -6 0 -11 5 -11 10 0 6 2 10 4 10 3 0
8 -4 11 -10z m795 6 c0 -2 -8 -10 -17 -17 -16 -13 -17 -12 -4 4 13 16 21 21
21 13z m278 -18 c-7 -19 -38 -22 -38 -4 0 10 9 16 21 16 12 0 19 -5 17 -12z
m-1397 -25 c13 -16 12 -17 -3 -4 -17 13 -22 21 -14 21 2 0 10 -8 17 -17z
m-317 -50 c9 -21 -18 -3 -44 30 l-25 32 32 -25 c17 -14 34 -30 37 -37z m1120
36 c-6 -11 -24 -2 -24 11 0 5 7 7 15 4 8 -4 12 -10 9 -15z m754 3 c5 -17 -25
-15 -31 2 -4 9 0 13 11 12 9 -2 18 -8 20 -14z m-1998 -6 c0 -2 -8 -10 -17 -17
-16 -13 -17 -12 -4 4 13 16 21 21 21 13z m1500 -6 c0 -5 -7 -7 -15 -4 -8 4
-15 8 -15 10 0 2 7 4 15 4 8 0 15 -4 15 -10z m-1015 -30 c10 -11 16 -20 13
-20 -3 0 -13 9 -23 20 -10 11 -16 20 -13 20 3 0 13 -9 23 -20z m780 0 c10 -11
14 -20 9 -20 -5 0 -15 9 -22 20 -7 11 -11 20 -9 20 2 0 12 -9 22 -20z m65 1
c0 -5 -11 -16 -24 -24 l-24 -16 15 30 c13 26 33 32 33 10z m630 16 c0 -2 -12
-14 -27 -28 l-28 -24 24 28 c23 25 31 32 31 24z m-2007 -42 c-3 -9 -8 -14 -10
-11 -3 3 -2 9 2 15 9 16 15 13 8 -4z m107 4 c0 -8 5 -8 15 1 30 25 14 3 -22
-31 -21 -18 -28 -22 -15 -8 17 19 19 28 10 37 -9 9 -9 12 0 12 7 0 12 -5 12
-11z m1015 -9 c3 -5 1 -10 -4 -10 -6 0 -11 5 -11 10 0 6 2 10 4 10 3 0 8 -4
11 -10z m-48 -22 c-3 -8 -6 -5 -6 6 -1 11 2 17 5 13 3 -3 4 -12 1 -19z m653
12 c0 -5 -4 -10 -10 -10 -5 0 -10 5 -10 10 0 6 5 10 10 10 6 0 10 -4 10 -10z
m-720 -10 c0 -5 -5 -10 -11 -10 -5 0 -7 5 -4 10 3 6 8 10 11 10 2 0 4 -4 4
-10z m310 -4 c0 -2 -8 -10 -17 -17 -16 -13 -17 -12 -4 4 13 16 21 21 21 13z
m565 -6 c3 -5 -1 -10 -10 -10 -9 0 -13 5 -10 10 3 6 8 10 10 10 2 0 7 -4 10
-10z m160 -8 c-3 -3 -11 0 -18 7 -9 10 -8 11 6 5 10 -3 15 -9 12 -12z m-1100
-21 c3 -5 1 -12 -5 -16 -5 -3 -10 1 -10 9 0 18 6 21 15 7z m826 -8 c13 -16 12
-17 -3 -4 -10 7 -18 15 -18 17 0 8 8 3 21 -13z m-1140 -20 c13 -16 12 -17 -3
-4 -17 13 -22 21 -14 21 2 0 10 -8 17 -17z m649 13 c0 -2 -8 -10 -17 -17 -16
-13 -17 -12 -4 4 13 16 21 21 21 13z m-780 -10 c0 -2 -8 -10 -17 -17 -16 -13
-17 -12 -4 4 13 16 21 21 21 13z m471 -13 c13 -16 12 -17 -3 -4 -17 13 -22 21
-14 21 2 0 10 -8 17 -17z m-631 -13 c0 -5 -4 -10 -10 -10 -5 0 -10 5 -10 10 0
6 5 10 10 10 6 0 10 -4 10 -10z m1090 -36 c0 -7 -5 -16 -12 -20 -6 -4 -8 -3
-5 3 3 5 -1 22 -9 38 -15 29 -15 29 6 10 11 -10 20 -24 20 -31z m785 27 c3 -5
1 -12 -5 -16 -5 -3 -10 1 -10 9 0 18 6 21 15 7z m-985 -17 c0 -8 -5 -12 -10
-9 -6 4 -8 11 -5 16 9 14 15 11 15 -7z m-790 2 c0 -2 -8 -10 -17 -17 -16 -13
-17 -12 -4 4 13 16 21 21 21 13z m245 -16 c10 -11 16 -20 13 -20 -3 0 -13 9
-23 20 -10 11 -16 20 -13 20 3 0 13 -9 23 -20z m326 3 c13 -16 12 -17 -3 -4
-10 7 -18 15 -18 17 0 8 8 3 21 -13z m39 7 c0 -5 -5 -10 -11 -10 -5 0 -7 5 -4
10 3 6 8 10 11 10 2 0 4 -4 4 -10z m-1015 -30 c3 -5 1 -10 -4 -10 -6 0 -11 5
-11 10 0 6 2 10 4 10 3 0 8 -4 11 -10z m1098 -83 c5 3 7 2 4 -4 -4 -6 5 -21
19 -34 21 -20 28 -21 45 -11 18 11 18 11 7 -7 -10 -17 -9 -24 12 -48 l25 -28
-27 24 c-18 15 -34 22 -48 18 -18 -5 -19 -3 -9 9 10 13 2 26 -51 79 -35 35
-67 62 -71 59 -11 -6 -21 14 -14 27 4 6 25 -10 52 -40 25 -28 50 -48 56 -44z
m-743 80 c0 -2 -10 -12 -22 -23 l-23 -19 19 23 c18 21 26 27 26 19z m1071 -14
c13 -16 12 -17 -3 -4 -10 7 -18 15 -18 17 0 8 8 3 21 -13z m429 3 c0 -11 -19
-15 -25 -6 -3 5 1 10 9 10 9 0 16 -2 16 -4z m340 -6 c0 -5 -2 -10 -4 -10 -3 0
-8 5 -11 10 -3 6 -1 10 4 10 6 0 11 -4 11 -10z m-899 -23 c-8 -10 -4 -20 19
-42 26 -25 33 -54 9 -39 -5 3 -7 9 -4 13 2 5 -7 18 -20 31 -19 18 -22 26 -14
37 6 7 14 13 16 13 3 0 0 -6 -6 -13z m-1007 -25 c3 -5 -1 -9 -9 -9 -8 0 -12 4
-9 9 3 4 7 8 9 8 2 0 6 -4 9 -8z m976 4 c0 -2 -8 -10 -17 -17 -16 -13 -17 -12
-4 4 13 16 21 21 21 13z m-660 -10 c0 -3 -4 -8 -10 -11 -5 -3 -10 -1 -10 4 0
6 5 11 10 11 6 0 10 -2 10 -4z m127 -2 c-3 -3 -12 -4 -19 -1 -8 3 -5 6 6 6 11
1 17 -2 13 -5z m767 -3 c3 -5 0 -11 -8 -14 -15 -6 -26 1 -26 15 0 11 27 10 34
-1z m-1244 -20 c0 -6 -4 -13 -10 -16 -5 -3 -10 1 -10 9 0 9 5 16 10 16 6 0 10
-4 10 -9z m235 -11 c3 -5 1 -10 -4 -10 -6 0 -11 5 -11 10 0 6 2 10 4 10 3 0 8
-4 11 -10z m730 0 c3 -5 2 -10 -4 -10 -5 0 -13 5 -16 10 -3 6 -2 10 4 10 5 0
13 -4 16 -10z m955 -20 c0 -5 -4 -10 -10 -10 -5 0 -10 5 -10 10 0 6 5 10 10
10 6 0 10 -4 10 -10z m-915 -20 c10 -11 16 -20 13 -20 -3 0 -13 9 -23 20 -10
11 -16 20 -13 20 3 0 13 -9 23 -20z m445 -5 c0 -8 -7 -15 -15 -15 -8 0 -15 7
-15 15 0 8 7 15 15 15 8 0 15 -7 15 -15z m-732 -13 c2 -7 -3 -12 -12 -12 -9 0
-16 7 -16 16 0 17 22 14 28 -4z m-778 5 c0 -2 -10 -12 -22 -23 l-23 -19 19 23
c18 21 26 27 26 19z m1278 -18 c14 0 14 -2 -1 -8 -17 -6 -14 -12 23 -45 31
-27 45 -35 53 -27 22 22 25 10 4 -13 l-21 -24 -17 26 c-9 15 -28 38 -43 52
-24 21 -29 23 -48 11 -20 -12 -19 -11 3 20 12 18 25 27 27 21 2 -7 11 -12 20
-13z m597 11 c3 -5 1 -10 -4 -10 -6 0 -11 5 -11 10 0 6 2 10 4 10 3 0 8 -4 11
-10z m-755 -25 c13 -14 21 -25 18 -25 -2 0 -15 11 -28 25 -13 14 -21 25 -18
25 2 0 15 -11 28 -25z m350 21 c0 -2 -8 -10 -17 -17 -16 -13 -17 -12 -4 4 13
16 21 21 21 13z m630 -6 c0 -5 -5 -10 -11 -10 -5 0 -7 5 -4 10 3 6 8 10 11 10
2 0 4 -4 4 -10z m-1203 -18 c-10 -10 -17 -24 -17 -30 0 -14 -3 -14 -23 -6 -9
3 -13 13 -10 25 4 14 9 17 18 9 9 -7 16 -6 25 5 7 8 15 15 18 15 3 0 -2 -8
-11 -18z m-957 -16 c0 -2 -8 -10 -17 -17 -16 -13 -17 -12 -4 4 13 16 21 21 21
13z m1480 0 c0 -2 -8 -10 -17 -17 -16 -13 -17 -12 -4 4 13 16 21 21 21 13z
m-231 -27 c-4 -9 -5 -20 -1 -24 4 -5 1 -5 -5 -1 -7 4 -17 15 -23 25 -8 16 -6
19 14 17 19 -1 22 -4 15 -17z m-922 -16 c-3 -3 -11 -2 -17 2 -9 6 -9 10 1 16
14 8 27 -7 16 -18z m683 -15 c0 -5 -12 -8 -26 -8 -18 0 -25 4 -21 14 3 7 0 19
-6 26 -7 6 3 3 20 -7 18 -10 33 -21 33 -25z m-579 5 c13 -16 12 -17 -3 -4 -10
7 -18 15 -18 17 0 8 8 3 21 -13z m408 15 c-2 -2 -17 -14 -34 -28 l-30 -25 24
28 c14 15 29 27 34 27 6 0 8 -1 6 -2z m-626 -19 c-6 -6 -9 -18 -6 -25 3 -8 0
-14 -6 -14 -6 0 -11 6 -11 13 0 13 19 37 29 37 3 0 0 -5 -6 -11z m377 7 c0 -2
-8 -10 -17 -17 -16 -13 -17 -12 -4 4 13 16 21 21 21 13z m457 -12 c-3 -3 -12
-4 -19 -1 -8 3 -5 6 6 6 11 1 17 -2 13 -5z m106 -13 c3 -14 1 -18 -9 -14 -8 3
-14 11 -14 19 0 21 17 17 23 -5z m-1168 -1 c3 -5 1 -10 -4 -10 -6 0 -11 5 -11
10 0 6 2 10 4 10 3 0 8 -4 11 -10z m974 -16 c14 -12 -19 -1 -35 12 -18 14 -18
14 6 3 14 -6 27 -13 29 -15z m1149 -9 c-3 -3 -9 2 -12 12 -6 14 -5 15 5 6 7
-7 10 -15 7 -18z m-988 2 c0 -2 -15 -16 -32 -33 l-33 -29 29 33 c28 30 36 37
36 29z m675 -7 c-3 -5 -11 -10 -16 -10 -6 0 -7 5 -4 10 3 6 11 10 16 10 6 0 7
-4 4 -10z m182 -22 c-3 -8 -6 -5 -6 6 -1 11 2 17 5 13 3 -3 4 -12 1 -19z
m-1457 2 c0 -5 -2 -10 -4 -10 -3 0 -8 5 -11 10 -3 6 -1 10 4 10 6 0 11 -4 11
-10z m481 -7 c13 -16 12 -17 -3 -4 -10 7 -18 15 -18 17 0 8 8 3 21 -13z m675
-20 c-10 -10 -19 5 -10 18 6 11 8 11 12 0 2 -7 1 -15 -2 -18z m-972 -8 c-4 -8
-8 -15 -10 -15 -2 0 -4 7 -4 15 0 8 4 15 10 15 5 0 7 -7 4 -15z m1170 -14 c-2
-3 -12 3 -22 13 -16 17 -16 18 5 5 12 -7 20 -15 17 -18z m-134 15 c0 -2 -8
-10 -17 -17 -16 -13 -17 -12 -4 4 13 16 21 21 21 13z m95 -26 c3 -5 -1 -10
-10 -10 -9 0 -13 5 -10 10 3 6 8 10 10 10 2 0 7 -4 10 -10z m69 -9 c3 -5 -1
-11 -9 -14 -9 -4 -12 -1 -8 9 6 16 10 17 17 5z m76 -11 c8 -5 11 -10 5 -10 -5
0 -17 5 -25 10 -8 5 -10 10 -5 10 6 0 17 -5 25 -10z m-640 -16 c0 -8 -4 -12
-10 -9 -5 3 -10 10 -10 16 0 5 5 9 10 9 6 0 10 -7 10 -16z m350 3 c0 -2 -10
-12 -22 -23 l-23 -19 19 23 c18 21 26 27 26 19z m-929 -24 c13 -16 12 -17 -3
-4 -17 13 -22 21 -14 21 2 0 10 -8 17 -17z m181 -11 c4 -12 -1 -18 -13 -18
-12 0 -19 7 -19 18 0 10 6 18 14 18 7 0 16 -8 18 -18z m312 -13 c-10 -16 -24
-9 -24 12 0 18 2 19 15 9 8 -7 12 -16 9 -21z m586 17 c0 -2 -8 -10 -17 -17
-16 -13 -17 -12 -4 4 13 16 21 21 21 13z m-1042 -35 c3 -8 -1 -12 -9 -9 -7 2
-15 10 -17 17 -3 8 1 12 9 9 7 -2 15 -10 17 -17z m-118 -10 c0 -5 -9 -11 -20
-14 -17 -4 -18 -2 -9 14 9 18 29 18 29 0z m540 6 c0 -8 -3 -17 -7 -20 -9 -9
-34 13 -27 24 8 14 34 11 34 -4z m218 -18 c-28 -7 -32 -4 -24 16 5 13 9 13 26
3 20 -13 20 -13 -2 -19z m-463 11 c3 -6 -2 -13 -12 -17 -10 -3 -33 -20 -52
-37 -34 -30 -34 -30 5 16 41 49 49 55 59 38z m815 0 c0 -5 -5 -10 -11 -10 -5
0 -7 5 -4 10 3 6 8 10 11 10 2 0 4 -4 4 -10z m-1750 -20 c0 -5 -2 -10 -4 -10
-3 0 -8 5 -11 10 -3 6 -1 10 4 10 6 0 11 -4 11 -10z m460 6 c0 -2 -8 -10 -17
-17 -16 -13 -17 -12 -4 4 13 16 21 21 21 13z m1498 -21 c-3 -3 -9 2 -12 12 -6
14 -5 15 5 6 7 -7 10 -15 7 -18z m-1368 1 c0 -2 -8 -10 -17 -17 -16 -13 -17
-12 -4 4 13 16 21 21 21 13z m129 -42 c-11 -12 -18 -27 -14 -33 3 -7 -2 -11
-14 -11 -28 0 -26 8 5 32 14 11 23 26 20 34 -3 8 0 11 10 7 13 -5 11 -9 -7
-29z m-309 9 c0 -7 -7 -13 -15 -13 -8 0 -15 6 -15 13 0 8 7 14 15 14 8 0 15
-6 15 -14z m870 -15 c0 -16 -20 -7 -30 12 -10 19 -10 20 9 8 12 -7 21 -16 21
-20z m-1239 5 c13 -16 12 -17 -3 -4 -10 7 -18 15 -18 17 0 8 8 3 21 -13z
m1311 -11 c4 -12 -1 -18 -13 -18 -19 0 -25 16 -12 29 11 12 20 8 25 -11z
m-526 -4 c-4 -26 -18 -40 -29 -29 -8 8 -5 15 9 26 23 18 23 18 20 3z m321 -22
c-1 -1 -27 -23 -57 -51 -31 -28 -41 -34 -22 -15 17 20 33 47 34 62 2 23 5 25
25 15 13 -6 22 -11 20 -11z m-208 11 c-2 -1 -15 -11 -29 -22 l-25 -20 19 23
c11 12 24 22 29 22 6 0 8 -1 6 -3z m704 -12 c1 -5 -6 -11 -15 -13 -11 -2 -18
3 -18 13 0 17 30 18 33 0z m187 -5 c0 -5 -5 -10 -11 -10 -5 0 -7 5 -4 10 3 6
8 10 11 10 2 0 4 -4 4 -10z m-1302 -25 c-2 -5 -11 -11 -22 -12 -16 -3 -17 -1
-6 12 14 16 34 16 28 0z m213 -2 c13 -16 12 -17 -3 -4 -10 7 -18 15 -18 17 0
8 8 3 21 -13z m-461 -3 c0 -5 -6 -10 -14 -10 -8 0 -18 5 -21 10 -3 6 3 10 14
10 12 0 21 -4 21 -10z m1151 -7 c13 -16 12 -17 -3 -4 -10 7 -18 15 -18 17 0 8
8 3 21 -13z m-1301 -18 c13 -14 21 -25 18 -25 -2 0 -15 11 -28 25 -13 14 -21
25 -18 25 2 0 15 -11 28 -25z m470 10 c0 -8 -4 -15 -9 -15 -5 0 -11 7 -15 15
-3 9 0 15 9 15 8 0 15 -7 15 -15z m1275 5 c-3 -5 -12 -10 -18 -10 -7 0 -6 4 3
10 19 12 23 12 15 0z m-1033 -23 c-12 -13 -19 -27 -15 -30 6 -6 -2 -8 -24 -6
-5 0 -11 10 -16 21 -6 18 -5 19 8 8 14 -11 20 -10 38 8 29 29 36 28 9 -1z
m-363 10 c-2 -1 -13 -9 -24 -17 -19 -14 -19 -14 -6 3 7 9 18 17 24 17 6 0 8
-1 6 -3z m1001 -12 c-12 -15 -30 -12 -30 6 0 5 10 9 21 9 18 0 19 -2 9 -15z
m-1050 -19 c0 -11 -19 -15 -25 -6 -3 5 1 10 9 10 9 0 16 -2 16 -4z m250 -41
c19 -19 32 -35 29 -35 -3 0 -20 16 -39 35 -19 19 -32 35 -29 35 3 0 20 -16 39
-35z m606 -12 c-5 -11 -10 -13 -17 -6 -7 7 -7 17 3 32 10 18 14 19 16 6 2 -9
1 -23 -2 -32z m-259 22 c0 -18 -28 -16 -35 3 -2 7 5 12 16 12 10 0 19 -7 19
-15z m-807 -20 c13 -14 21 -25 18 -25 -2 0 -15 11 -28 25 -13 14 -21 25 -18
25 2 0 15 -11 28 -25z m170 21 c0 -3 -4 -8 -10 -11 -5 -3 -10 -1 -10 4 0 6 5
11 10 11 6 0 10 -2 10 -4z m481 -23 c13 -16 12 -17 -3 -4 -17 13 -22 21 -14
21 2 0 10 -8 17 -17z m-326 -23 c3 -5 -1 -10 -9 -10 -9 0 -16 5 -16 10 0 6 4
10 9 10 6 0 13 -4 16 -10z m390 -30 c10 -11 14 -20 9 -20 -5 0 -15 9 -22 20
-7 11 -11 20 -9 20 2 0 12 -9 22 -20z m250 11 c10 -17 -12 -21 -25 -6 -10 12
-10 15 3 15 9 0 18 -4 22 -9z m-500 -40 c7 -12 -12 -24 -25 -16 -11 7 -4 25
10 25 5 0 11 -4 15 -9z m296 -8 c13 -16 12 -17 -3 -4 -10 7 -18 15 -18 17 0 8
8 3 21 -13z m-361 -7 c0 -3 -4 -8 -10 -11 -5 -3 -10 -1 -10 4 0 6 5 11 10 11
6 0 10 -2 10 -4z m190 -12 c0 -17 -22 -14 -28 4 -2 7 3 12 12 12 9 0 16 -7 16
-16z m220 -14 c0 -3 -9 -6 -19 -6 -16 0 -18 4 -9 19 8 16 12 17 19 6 5 -8 9
-16 9 -19z m-680 -5 c13 -14 21 -25 18 -25 -2 0 -15 11 -28 25 -13 14 -21 25
-18 25 2 0 15 -11 28 -25z m1240 -9 c0 -3 -4 -8 -10 -11 -5 -3 -10 -1 -10 4 0
6 5 11 10 11 6 0 10 -2 10 -4z m-1185 -46 c10 -11 16 -20 13 -20 -3 0 -13 9
-23 20 -10 11 -16 20 -13 20 3 0 13 -9 23 -20z m845 -10 c0 -5 -4 -10 -10 -10
-5 0 -10 5 -10 10 0 6 5 10 10 10 6 0 10 -4 10 -10z m-510 -53 c0 -2 -10 -12
-22 -23 l-23 -19 19 23 c18 21 26 27 26 19z m-235 -37 c10 -11 16 -20 13 -20
-3 0 -13 9 -23 20 -10 11 -16 20 -13 20 3 0 13 -9 23 -20z m165 -23 c0 -2 -12
-14 -27 -28 l-28 -24 24 28 c23 25 31 32 31 24z m180 -40 c0 -2 -10 -12 -22
-23 l-23 -19 19 23 c18 21 26 27 26 19z m190 -27 c0 -5 -2 -10 -4 -10 -3 0 -8
5 -11 10 -3 6 -1 10 4 10 6 0 11 -4 11 -10z m-275 -50 c-10 -11 -22 -20 -28
-20 -5 0 1 9 14 20 31 25 37 25 14 0z m178 -47 c-7 -2 -21 -2 -30 0 -10 3 -4
5 12 5 17 0 24 -2 18 -5z m67 -3 c0 -5 -5 -10 -11 -10 -5 0 -7 5 -4 10 3 6 8
10 11 10 2 0 4 -4 4 -10z m320 -109 l75 -6 -115 -7 c-148 -10 -403 -10 -550 0
-111 7 -113 7 -50 13 88 8 547 8 640 0z"/>
</g>
</svg>
